<!DOCTYPE svg PUBLIC "-//W3C//DTD SVG 1.1//EN" "http://www.w3.org/Graphics/SVG/1.1/DTD/svg11.dtd">
<svg version="1.1" id="Слой_1" xmlns="http://www.w3.org/2000/svg" xmlns:xlink="http://www.w3.org/1999/xlink" x="0px" y="0px"
	 viewBox="0 0 100 100" enable-background="new 0 0 100 100" xml:space="preserve">
<path fill="#231F20" d="M84.75,9.421h0.747c0.478,0,0.782,0.109,0.782,0.583c0,0.274-0.121,0.615-0.707,0.615H84.75V9.421z
	 M84.037,12.744h0.713v-1.596h0.582c0.805,0,0.848,0.364,0.848,0.715c0.032,0.628,0,0.738,0.146,0.882h0.734
	c-0.152-0.21-0.119-0.319-0.152-0.914c-0.035-0.375-0.059-0.835-0.551-0.924v-0.021c0.568-0.242,0.647-0.615,0.647-0.88
	c0-1.001-0.862-1.108-1.264-1.108h-1.704V12.744L84.037,12.744z M82.318,10.853c0-1.814,1.377-3.268,3.129-3.268
	c1.744,0,3.125,1.454,3.125,3.268s-1.375,3.268-3.125,3.268C83.695,14.119,82.318,12.666,82.318,10.853 M81.593,10.853
	c0,2.123,1.692,3.849,3.853,3.849c2.154,0,3.849-1.724,3.849-3.849c0-2.123-1.692-3.85-3.849-3.85
	C83.285,7.001,81.593,8.729,81.593,10.853"/>
<path fill="#231F20" d="M66.844,76.04c-0.438,0.296-0.326,0.819-0.091,1.176c0.319,0.47,0.776,0.569,1.123,0.332
	c0.458-0.31,0.354-0.812,0.119-1.153C67.88,76.217,67.396,75.667,66.844,76.04 M67.93,78.82c0.211,0.201,0.519,0.147,0.76-0.018
	c0.34-0.228,0.445-0.648-0.021-1.428c-0.025,0.204-0.104,0.576-0.504,0.857c-0.689,0.465-1.557,0.256-2.085-0.526
	c-0.404-0.606-0.738-1.638,0.3-2.342c0.328-0.224,1.381-0.875,2.684,1.052c0.28,0.416,1.399,2.175,0.054,3.09
	c-0.841,0.569-1.521,0.128-1.871-0.229L67.93,78.82z M63.495,78.168l0.104-0.057c0.351-0.188,0.748-0.707,0.555-1.237l0.63-0.336
	l2.192,4.149l-0.843,0.441l-1.538-2.914l-0.843,0.443L63.495,78.168z M63.079,80.036c-0.271-0.644-0.69-1.515-1.315-1.245
	c-0.611,0.257-0.285,1.189-0.021,1.813c0.268,0.621,0.71,1.506,1.318,1.246C63.688,81.582,63.352,80.68,63.079,80.036
	 M60.906,80.957c-0.955-2.238,0.264-2.805,0.533-2.917c0.273-0.117,1.528-0.599,2.479,1.644c0.945,2.238-0.27,2.807-0.54,2.92
	C63.102,82.718,61.852,83.201,60.906,80.957 M61.232,83.332l-2.963,0.885l-0.054-0.183c-0.176-0.582-0.135-1.034,0.488-1.929
	c0.546-0.799,0.899-1.097,0.724-1.688c-0.144-0.479-0.488-0.586-0.818-0.486c-0.396,0.117-0.572,0.481-0.438,0.938l0.049,0.158
	l-0.843,0.257l-0.043-0.14c-0.194-0.646-0.158-1.636,1.075-2.006c0.181-0.053,1.447-0.414,1.865,0.981
	c0.173,0.573,0.134,1.116-0.567,1.955c-0.325,0.396-0.539,0.646-0.603,1.041l1.888-0.568L61.232,83.332z M39.274,82.739l0.582,0.174
	c0.712,0.212,1.194-0.115,1.468-1.047c0.368-1.245-0.219-1.576-0.601-1.689l-0.635-0.186L39.274,82.739z M41.098,79.338
	c0.372,0.111,1.864,0.607,1.214,2.798c-0.63,2.128-2.004,1.861-2.63,1.677l-1.58-0.467l1.333-4.502L41.098,79.338z M35.91,78.35
	l0.355-0.841l3.125,1.317l-0.356,0.841l-1.121-0.476l-1.468,3.481l-0.878-0.37l1.47-3.479L35.91,78.35z M32.809,79.198
	c-0.14,0.254-0.251,0.712,0.341,1.045c0.308,0.17,0.668,0.284,0.867-0.07c0.244-0.44-0.176-0.797-0.541-1.138
	c-0.542-0.51-0.967-1-0.458-1.916c0.369-0.654,1.055-0.996,2.121-0.402c0.977,0.547,0.964,1.393,0.647,1.992l-0.784-0.439
	c0.099-0.237,0.098-0.531-0.356-0.781c-0.413-0.231-0.648-0.117-0.762,0.091c-0.196,0.351,0.144,0.663,0.414,0.892
	c0.646,0.594,1.154,1.137,0.652,2.038c-0.187,0.331-0.843,1.317-2.251,0.527c-1.297-0.722-1.032-1.759-0.728-2.3L32.809,79.198z
	 M32.26,77.359l-0.502,0.707l-1.604-1.146l-0.608,0.861l1.87,1.329l-0.529,0.74l-2.644-1.879l2.715-3.826l2.599,1.848l-0.526,0.742
	l-1.823-1.295l-0.553,0.777L32.26,77.359z M71.449,26.472l0.654-0.693l1.625,1.535l0.623-0.666l-2.322-2.184l-3.213,3.415
	l2.363,2.225l0.625-0.664l-1.673-1.573l0.724-0.767l1.434,1.351l0.598-0.63L71.449,26.472z M68.479,22.873l0.604,0.442
	c0.168,0.128,0.563,0.381,0.185,0.895c-0.272,0.367-0.566,0.385-0.932,0.113l-0.598-0.443L68.479,22.873z M68.257,21.574
	l-2.789,3.774l0.767,0.564l0.961-1.301l0.729,0.537c0.396,0.292,1.297,0.848,2.174-0.338c0.688-0.932,0.322-1.637-0.326-2.121
	L68.257,21.574z M65.984,20.277l-2.356,4.054l0.815,0.479l2.361-4.053L65.984,20.277z M62.686,22.023
	c-0.187,0.297-0.56,0.713-1.135,0.457c-0.593-0.261-0.646-0.984-0.283-1.793c0.637-1.433,1.34-1.17,1.534-1.083
	c0.197,0.087,0.673,0.333,0.438,1.089l0.855,0.38c0.252-0.642,0.348-1.737-0.967-2.322c-0.355-0.157-1.814-0.703-2.818,1.557
	c-0.748,1.682-0.104,2.568,0.836,2.99c1.309,0.582,2.057-0.273,2.399-0.89L62.686,22.023z M57.512,18.953l0.254-0.917l2.156,0.599
	l0.242-0.878l-3.071-0.853l-1.253,4.52l3.129,0.866l0.241-0.879L57.003,20.8l0.278-1.013l1.9,0.524l0.229-0.833L57.512,18.953z
	 M53.084,17.206l0.825,0.111c0.409,0.055,0.622,0.226,0.562,0.684c-0.025,0.227-0.15,0.575-0.685,0.503l-0.861-0.116L53.084,17.206z
	 M51.639,20.829l0.944,0.124l0.229-1.712l0.727,0.096c0.113,0.018,0.602,0.063,0.572,0.617c-0.051,0.704-0.127,0.903,0,1.205
	l0.961,0.127c-0.106-0.267-0.078-0.443-0.02-1.044c0.045-0.346,0.104-0.941-0.422-1.207l0.006-0.015
	c0.273-0.068,0.743-0.277,0.852-1.069c0.16-1.203-0.774-1.448-1.187-1.502l-2.045-0.273L51.639,20.829z M46.778,17.156l0.216,3.773
	l0.95-0.054l-0.215-3.773l1.216-0.069l-0.055-0.912l-3.383,0.193l0.052,0.911L46.778,17.156z M42.483,18.788l-0.186-0.936
	l2.195-0.435l-0.178-0.893l-3.127,0.62l0.913,4.602l3.183-0.631l-0.176-0.895l-2.251,0.445l-0.206-1.032l1.935-0.383l-0.168-0.847
	L42.483,18.788z M37.742,19.227l0.792-0.273c0.389-0.138,0.653-0.077,0.808,0.358c0.073,0.216,0.123,0.584-0.386,0.757l-0.824,0.285
	L37.742,19.227z M38.077,23.109l0.9-0.311l-0.565-1.633l0.692-0.239c0.109-0.038,0.567-0.214,0.792,0.295
	c0.273,0.65,0.293,0.862,0.542,1.074l0.916-0.315c-0.218-0.188-0.271-0.361-0.485-0.924c-0.114-0.329-0.332-0.886-0.917-0.89
	l-0.002-0.012c0.215-0.189,0.542-0.587,0.282-1.338c-0.398-1.148-1.338-0.949-1.732-0.814l-1.95,0.672L38.077,23.109z
	 M35.895,22.365c0.12,0.33,0.209,0.879-0.346,1.17c-0.574,0.299-1.175-0.108-1.583-0.891c-0.724-1.394-0.082-1.779,0.105-1.879
	c0.195-0.102,0.681-0.315,1.125,0.339l0.83-0.432c-0.345-0.6-1.142-1.355-2.416-0.694c-0.347,0.182-1.679,0.979-0.539,3.174
	c0.851,1.635,1.943,1.688,2.857,1.211c1.268-0.661,1.07-1.78,0.802-2.433L35.895,22.365z M30.212,24.487l-0.547-0.778l1.831-1.284
	l-0.526-0.747l-2.607,1.833l2.695,3.84l2.656-1.863l-0.522-0.744l-1.878,1.316l-0.605-0.861l1.616-1.132l-0.499-0.708L30.212,24.487
	z M26.964,29.105c0.429,0.455,1.333,1.018,2.417,0c1.175-1.109,0.433-2.029,0.17-2.309c-0.709-0.752-1.379-0.431-2.139,0.008
	c-0.296,0.189-0.697,0.418-0.975,0.125c-0.162-0.169-0.199-0.429,0.146-0.753c0.379-0.357,0.656-0.272,0.854-0.105l0.653-0.615
	c-0.476-0.482-1.273-0.753-2.09,0.018c-0.889,0.839-0.773,1.593-0.253,2.143c0.715,0.761,1.313,0.505,1.959,0.142
	c0.438-0.248,0.905-0.539,1.25-0.172c0.28,0.297,0.062,0.604-0.192,0.844c-0.496,0.464-0.901,0.221-1.098,0.013L26.964,29.105z
	 M70.59,64.65v1.187h-2.604v1.438h3.031v1.246h-4.289v-6.412h4.217v1.244h-2.959v1.297H70.59L70.59,64.65z M60.675,63.938h-0.022
	v4.582h-1.26v-6.412h1.77l1.273,4.406l1.273-4.406h1.77v6.412h-1.263v-4.582h-0.021l-1.329,4.582H62.01L60.675,63.938z
	 M58.146,68.521h-1.262v-6.412h1.262V68.521z M51.648,63.354v-1.244h4.479v1.244h-1.61v5.166H53.26v-5.166H51.648L51.648,63.354z
	 M49.589,68.521h-3.74v-6.412h1.256v5.164h2.485L49.589,68.521L49.589,68.521z M43.326,66.229l-0.688-2.444l-0.701,2.444H43.326z
	 M43.272,62.107l2.005,6.41h-1.335l-0.339-1.199h-1.938l-0.336,1.199h-1.325L42,62.107H43.272z M39.195,64.65v1.187h-2.607v1.438
	h3.032v1.246h-4.29v-6.412h4.216v1.244h-2.958v1.297H39.195L39.195,64.65z M29.277,63.938h-0.023v4.582h-1.259v-6.412h1.768
	l1.271,4.406l1.272-4.406h1.769v6.412h-1.258v-4.582h-0.023l-1.333,4.582h-0.853L29.277,63.938z M88.152,34.618h1.015
	C82.93,18.82,67.523,7.643,49.504,7.643c-18.016,0-33.422,11.177-39.657,26.975h1.016C17.046,19.353,32.017,8.583,49.505,8.583
	C66.991,8.583,81.962,19.352,88.152,34.618 M49.504,12.968c15.014,0,27.953,8.866,33.863,21.65h0.511
	c-5.942-13.044-19.101-22.114-34.374-22.114c-15.273,0-28.429,9.068-34.373,22.114h0.508C21.552,21.837,34.493,12.968,49.504,12.968
	 M85.785,58.889c-3.573,15.073-16.307,26.6-31.999,28.387v0.47c15.946-1.8,28.886-13.524,32.478-28.856H85.785L85.785,58.889z
	 M45.223,87.744v-0.469c-15.69-1.789-28.425-13.313-32.002-28.387h-0.479C16.336,74.221,29.277,85.943,45.223,87.744 M91.245,58.889
	h-0.956c-3.982,18.867-20.73,33.023-40.784,33.023c-20.055,0-36.8-14.156-40.78-33.023h-0.96
	c3.996,19.389,21.164,33.967,41.74,33.967C70.079,92.855,87.251,78.275,91.245,58.889"/>
<polygon fill="#D5CB6E" points="49.417,80.968 50.374,83.915 53.475,83.915 50.971,85.723 51.927,88.668 49.417,86.834 
	46.913,88.668 47.895,85.723 45.39,83.915 48.462,83.915 "/>
<polygon fill="none" stroke="#231F20" stroke-width="0.6775" stroke-miterlimit="10" points="49.417,80.968 50.374,83.915 
	53.475,83.915 50.971,85.723 51.927,88.668 49.417,86.834 46.913,88.668 47.895,85.723 45.39,83.915 48.462,83.915 "/>
<path fill="none" stroke="#231F20" stroke-linejoin="round" stroke-miterlimit="27.749" d="M87.607,51.713
	c-0.164,0.145-0.471,0.217-0.918,0.217v-5.554c0.539,0.02,0.867,0.107,0.985,0.257c0.11,0.156,0.173,0.588,0.173,1.297v2.441
	C87.848,51.125,87.768,51.57,87.607,51.713z M91.423,47.595c0-1.17-0.142-2.025-0.419-2.575c-0.275-0.545-0.699-0.896-1.27-1.058
	c-0.564-0.162-1.398-0.239-2.5-0.239h-0.547v-5.795h-3.578v16.914h4.127c1.181,0,2.041-0.068,2.58-0.208
	c0.539-0.143,0.943-0.487,1.207-1.032c0.266-0.554,0.396-1.457,0.396-2.717v-3.29h0.005l0,0H91.423z M74.5,37.937v3.381h2.107
	v13.525h3.568V41.319h2.119v-3.382H74.5L74.5,37.937z M73.828,43.692c0-1.577-0.104-2.742-0.319-3.486
	c-0.214-0.746-0.661-1.371-1.345-1.871c-0.688-0.501-1.557-0.751-2.605-0.751c-0.776,0-1.455,0.161-2.051,0.484
	c-0.601,0.322-1.064,0.766-1.4,1.332c-0.338,0.563-0.537,1.149-0.605,1.759c-0.07,0.61-0.105,1.523-0.105,2.742v4.936
	c0,1.659,0.11,2.897,0.332,3.724c0.22,0.823,0.67,1.472,1.348,1.937c0.683,0.468,1.535,0.696,2.585,0.696
	c1.004,0,1.854-0.272,2.539-0.824c0.69-0.549,1.131-1.188,1.329-1.922c0.201-0.732,0.303-1.974,0.303-3.72v-0.659h-3.566v2.126
	c0,0.929-0.041,1.517-0.119,1.771c-0.086,0.249-0.258,0.375-0.526,0.375c-0.274,0-0.452-0.126-0.529-0.373
	c-0.082-0.254-0.118-0.787-0.118-1.609v-7.853c0-0.854,0.036-1.415,0.118-1.669c0.077-0.258,0.267-0.387,0.56-0.387
	c0.263,0,0.431,0.106,0.504,0.318c0.078,0.211,0.115,0.746,0.115,1.599v2.938h3.563L73.828,43.692L73.828,43.692z M58.288,54.843
	h6.188v-3.387h-2.619v-3.715h2.228v-3.213h-2.228v-3.209h2.381v-3.382h-5.95V54.843L58.288,54.843z M49.379,44.291
	c-0.128-0.19-0.191-0.599-0.191-1.225v-0.929c0-0.536,0.077-0.886,0.23-1.051c0.151-0.162,0.378-0.245,0.681-0.245h0.166v3.738
	C49.8,44.577,49.505,44.483,49.379,44.291z M53.842,37.928h-2.533c-1.196,0-2.071,0.029-2.628,0.089
	c-0.558,0.062-1.055,0.228-1.483,0.505c-0.429,0.279-0.757,0.733-0.982,1.375c-0.227,0.637-0.338,1.518-0.338,2.646
	c0,1.25,0.123,2.121,0.366,2.604c0.241,0.485,0.774,0.772,1.592,0.863c-0.597,0.194-1.038,0.439-1.313,0.73
	c-0.276,0.293-0.458,0.662-0.532,1.106c-0.078,0.446-0.114,1.098-0.114,1.952v5.043h3.312v-6.119c0-0.625,0.066-1.032,0.202-1.216
	c0.132-0.185,0.423-0.277,0.875-0.277v7.613h3.578L53.842,37.928L53.842,37.928z M39.816,37.937l-0.819,7.895l-0.505-4.296
	c-0.146-1.38-0.29-2.579-0.423-3.595h-4.618v16.903h3.121l0.002-11.151l1.308,11.151h2.213l1.24-11.411l0.001,11.411h3.122V37.937
	H39.816z M26.24,54.843h6.184v-3.387h-2.621v-3.715h2.229v-3.213h-2.229v-3.209h2.383v-3.382h-5.948v16.904l0,0v0.002H26.24z
	 M22.011,41.09c0.148,0.175,0.221,0.55,0.221,1.128v1.388c0,0.628-0.063,1.039-0.19,1.238c-0.127,0.199-0.354,0.296-0.682,0.296
	c-0.073,0-0.161-0.002-0.263-0.008V40.83C21.559,40.829,21.864,40.919,22.011,41.09z M17.528,54.843h3.569v-6.81h0.957
	c0.779,0,1.412-0.13,1.896-0.396c0.482-0.266,0.815-0.643,0.995-1.138c0.181-0.496,0.271-1.282,0.271-2.361v-1.471
	c0-1.057-0.048-1.838-0.142-2.345c-0.093-0.503-0.27-0.934-0.533-1.287c-0.265-0.357-0.654-0.628-1.179-0.817
	c-0.522-0.189-1.27-0.281-2.242-0.281h-3.593L17.528,54.843L17.528,54.843z M12.494,47.479c0.124,0.152,0.186,0.591,0.186,1.316
	v1.574c0,0.686-0.071,1.111-0.208,1.283c-0.139,0.18-0.46,0.273-0.962,0.293V47.22C12.039,47.24,12.371,47.328,12.494,47.479z
	 M12.25,40.925c0.128,0.056,0.233,0.19,0.313,0.4c0.078,0.212,0.118,0.584,0.118,1.112c0,1.004-0.048,1.609-0.146,1.821
	c-0.097,0.214-0.319,0.319-0.671,0.319c-0.083,0-0.204,0.002-0.356,0.011v-3.76C11.879,40.837,12.124,40.868,12.25,40.925z
	 M7.942,54.843h4.128c1.435,0,2.382-0.104,2.847-0.305c0.462-0.204,0.801-0.577,1.013-1.127c0.211-0.554,0.318-1.397,0.318-2.54
	v-1.567c0-1.1-0.147-1.915-0.441-2.45c-0.294-0.533-0.854-0.915-1.676-1.145c0.738-0.207,1.233-0.507,1.485-0.896
	c0.251-0.391,0.378-1.078,0.378-2.065c0-1.462-0.177-2.521-0.533-3.178c-0.355-0.656-0.822-1.093-1.403-1.31
	c-0.58-0.215-1.43-0.325-2.556-0.325H7.941L7.942,54.843L7.942,54.843z"/>
<path fill="#D5CB6E" d="M87.607,51.713c-0.164,0.145-0.471,0.217-0.918,0.217v-5.554c0.539,0.02,0.867,0.107,0.985,0.257
	c0.11,0.156,0.173,0.588,0.173,1.297v2.441C87.848,51.125,87.768,51.57,87.607,51.713 M91.423,47.595
	c0-1.17-0.142-2.025-0.419-2.575c-0.275-0.545-0.699-0.896-1.27-1.058c-0.564-0.162-1.398-0.239-2.5-0.239h-0.547v-5.795h-3.578
	v16.914h4.127c1.181,0,2.041-0.068,2.58-0.208c0.539-0.143,0.943-0.487,1.207-1.032c0.266-0.554,0.396-1.457,0.396-2.717v-3.29
	h0.005l0,0H91.423z M74.5,37.937v3.381h2.107v13.525h3.568V41.319h2.119v-3.382H74.5L74.5,37.937z M73.828,43.692
	c0-1.577-0.104-2.742-0.319-3.486c-0.214-0.746-0.661-1.371-1.345-1.871c-0.688-0.501-1.557-0.751-2.605-0.751
	c-0.776,0-1.455,0.161-2.051,0.484c-0.601,0.322-1.064,0.766-1.4,1.332c-0.338,0.563-0.537,1.149-0.605,1.759
	c-0.07,0.61-0.105,1.523-0.105,2.742v4.936c0,1.659,0.11,2.897,0.332,3.724c0.22,0.823,0.67,1.472,1.348,1.937
	c0.683,0.468,1.535,0.696,2.585,0.696c1.004,0,1.854-0.272,2.539-0.824c0.69-0.549,1.131-1.188,1.329-1.922
	c0.201-0.732,0.303-1.974,0.303-3.72v-0.659h-3.566v2.126c0,0.929-0.041,1.517-0.119,1.771c-0.086,0.249-0.258,0.375-0.526,0.375
	c-0.274,0-0.452-0.126-0.529-0.373c-0.082-0.254-0.118-0.787-0.118-1.609v-7.853c0-0.854,0.036-1.415,0.118-1.669
	c0.077-0.258,0.267-0.387,0.56-0.387c0.263,0,0.431,0.106,0.504,0.318c0.078,0.211,0.115,0.746,0.115,1.599v2.938h3.563
	L73.828,43.692L73.828,43.692z M58.288,54.843h6.188v-3.387h-2.619v-3.715h2.228v-3.213h-2.228v-3.209h2.381v-3.382h-5.95V54.843
	L58.288,54.843z M49.379,44.291c-0.128-0.19-0.191-0.599-0.191-1.225v-0.929c0-0.536,0.077-0.886,0.23-1.051
	c0.151-0.162,0.378-0.245,0.681-0.245h0.166v3.738C49.8,44.577,49.505,44.483,49.379,44.291 M53.842,37.928h-2.533
	c-1.196,0-2.071,0.029-2.628,0.089c-0.558,0.062-1.055,0.228-1.483,0.505c-0.429,0.279-0.757,0.733-0.982,1.375
	c-0.227,0.637-0.338,1.518-0.338,2.646c0,1.25,0.123,2.121,0.366,2.604c0.241,0.485,0.774,0.772,1.592,0.863
	c-0.597,0.194-1.038,0.439-1.313,0.73c-0.276,0.293-0.458,0.662-0.532,1.106c-0.078,0.446-0.114,1.098-0.114,1.952v5.043h3.312
	v-6.119c0-0.625,0.066-1.032,0.202-1.216c0.132-0.185,0.423-0.277,0.875-0.277v7.613h3.578L53.842,37.928L53.842,37.928z
	 M39.816,37.937l-0.819,7.895l-0.505-4.296c-0.146-1.38-0.29-2.579-0.423-3.595h-4.618v16.903h3.121l0.002-11.151l1.308,11.151
	h2.213l1.24-11.411l0.001,11.411h3.122V37.937H39.816z M26.24,54.843h6.184v-3.387h-2.621v-3.715h2.229v-3.213h-2.229v-3.209h2.383
	v-3.382h-5.948v16.904l0,0v0.002H26.24z M22.011,41.09c0.148,0.175,0.221,0.55,0.221,1.128v1.388c0,0.628-0.063,1.039-0.19,1.238
	c-0.127,0.199-0.354,0.296-0.682,0.296c-0.073,0-0.161-0.002-0.263-0.008V40.83C21.559,40.829,21.864,40.919,22.011,41.09
	 M17.528,54.843h3.569v-6.81h0.957c0.779,0,1.412-0.13,1.896-0.396c0.482-0.266,0.815-0.643,0.995-1.138
	c0.181-0.496,0.271-1.282,0.271-2.361v-1.471c0-1.057-0.048-1.838-0.142-2.345c-0.093-0.503-0.27-0.934-0.533-1.287
	c-0.265-0.357-0.654-0.628-1.179-0.817c-0.522-0.189-1.27-0.281-2.242-0.281h-3.593L17.528,54.843L17.528,54.843z M12.494,47.479
	c0.124,0.152,0.186,0.591,0.186,1.316v1.574c0,0.686-0.071,1.111-0.208,1.283c-0.139,0.18-0.46,0.273-0.962,0.293V47.22
	C12.039,47.24,12.371,47.328,12.494,47.479 M12.25,40.925c0.128,0.056,0.233,0.19,0.313,0.4c0.078,0.212,0.118,0.584,0.118,1.112
	c0,1.004-0.048,1.609-0.146,1.821c-0.097,0.214-0.319,0.319-0.671,0.319c-0.083,0-0.204,0.002-0.356,0.011v-3.76
	C11.879,40.837,12.124,40.868,12.25,40.925 M7.942,54.843h4.128c1.435,0,2.382-0.104,2.847-0.305
	c0.462-0.204,0.801-0.577,1.013-1.127c0.211-0.554,0.318-1.397,0.318-2.54v-1.567c0-1.1-0.147-1.915-0.441-2.45
	c-0.294-0.533-0.854-0.915-1.676-1.145c0.738-0.207,1.233-0.507,1.485-0.896c0.251-0.391,0.378-1.078,0.378-2.065
	c0-1.462-0.177-2.521-0.533-3.178c-0.355-0.656-0.822-1.093-1.403-1.31c-0.58-0.215-1.43-0.325-2.556-0.325H7.941L7.942,54.843
	L7.942,54.843z"/>
</svg>
